<svg xmlns="http://www.w3.org/2000/svg" viewBox="0 0 16.6 21.01"><defs><style>.cls-1{fill:#1b1b1b;}</style></defs><title>calculation_1</title><g id="Слой_2" data-name="Слой 2"><g id="Слой_1-2" data-name="Слой 1"><path class="cls-1" d="M16.1,21H.5a.5.5,0,0,1-.5-.5V.5A.5.5,0,0,1,.5,0H16.1a.5.5,0,0,1,.5.5v20A.5.5,0,0,1,16.1,21ZM1,20H15.6V1H1Z"/><path class="cls-1" d="M13.22,7.37H3.44a.5.5,0,0,1-.5-.5V3.42a.5.5,0,0,1,.5-.5h9.78a.5.5,0,0,1,.5.5V6.87A.5.5,0,0,1,13.22,7.37Zm-9.28-1h8.78V3.92H3.94Z"/><path class="cls-1" d="M7.69,13.15h-1V10.27H3.81v-1H7.19a.5.5,0,0,1,.5.5Z"/><path class="cls-1" d="M13.29,13.15h-1V10.27H9.41v-1h3.38a.5.5,0,0,1,.5.5Z"/><path class="cls-1" d="M7.69,18.65h-1V15.77H3.81v-1H7.19a.5.5,0,0,1,.5.5Z"/><path class="cls-1" d="M13.29,18.65h-1V15.77H9.41v-1h3.38a.5.5,0,0,1,.5.5Z"/></g></g></svg>