<svg xmlns="http://www.w3.org/2000/svg" viewBox="0 0 17.14 17.07"><defs><style>.cls-1{fill:#1b1b1b;}</style></defs><title>call</title><g id="Слой_2" data-name="Слой 2"><g id="Слой_1-2" data-name="Слой 1"><path class="cls-1" d="M13.35,17.07a7.24,7.24,0,0,1-2.86-.66c-3.49-1.51-8-6-9.94-9.87A5.08,5.08,0,0,1,1.89.39,1.51,1.51,0,0,1,4,.45l2.4,2.43A1.33,1.33,0,0,1,6.5,4.61L5.6,5.83a.42.42,0,0,0,0,.46c1.15,2,4.66,4.73,5.71,5.53h0a.27.27,0,0,0,.34,0l1.15-1a1.17,1.17,0,0,1,1.6,0l2.3,2.3A1.57,1.57,0,0,1,17,14.91,3.88,3.88,0,0,1,13.35,17.07ZM2.9,1a.48.48,0,0,0-.33.13,4.06,4.06,0,0,0-1.12,5c1.81,3.66,6.14,8,9.44,9.39,2.88,1.25,4.57.29,5.2-1a.58.58,0,0,0-.13-.64l-2.3-2.3a.17.17,0,0,0-.23,0l-1.15,1a1.27,1.27,0,0,1-1.62.06h0c-1.39-1.07-4.75-3.77-6-5.82a1.42,1.42,0,0,1,.09-1.56L5.7,4a.33.33,0,0,0,0-.43L3.27,1.15A.52.52,0,0,0,2.9,1Z"/><path class="cls-1" d="M16.8,8.43h-1A6.88,6.88,0,0,0,8.93,1.56v-1A7.88,7.88,0,0,1,16.8,8.43Z"/><path class="cls-1" d="M14.32,8.43h-1A4.39,4.39,0,0,0,8.93,4V3A5.39,5.39,0,0,1,14.32,8.43Z"/></g></g></svg>