<svg xmlns="http://www.w3.org/2000/svg" viewBox="0 0 166.36 31.67"><defs><style>.cls-1{fill:#fd0;}.cls-2{fill:#2d2e2b;}</style></defs><title>logo</title><g id="Слой_2" data-name="Слой 2"><g id="Слой_1-2" data-name="Слой 1"><polygon class="cls-1" points="37.41 31.64 31.4 31.65 42.88 20.17 43.33 22.64 43.28 25.77 37.41 31.64"/><polygon class="cls-1" points="6 31.66 0 31.66 31.52 0.14 33.93 0.97 36.82 0.84 6 31.66"/><polygon class="cls-1" points="16.37 31.67 10.38 31.66 36.63 5.41 39.63 8.41 16.37 31.67"/><polygon class="cls-1" points="26.79 31.66 20.79 31.66 39.07 13.38 42.07 16.38 26.79 31.66"/><path class="cls-2" d="M81.26.42A.42.42,0,0,1,81.68,0H91.77a8.64,8.64,0,0,1,6.7,2.59,8.61,8.61,0,0,1,2,5.92c0,4.13-2,6.72-4.93,7.92l5.23,8.49a.42.42,0,0,1-.36.64H95.45a.42.42,0,0,1-.36-.2l-4.87-8H86.32v7.76a.42.42,0,0,1-.42.42H81.68a.42.42,0,0,1-.42-.42Zm10.18,12c2.46,0,3.88-1.46,3.88-3.69,0-2.41-1.51-3.65-4-3.65h-5v7.34Z"/><path class="cls-2" d="M106.95,0h4.79a.42.42,0,0,1,.36.21L118,10.82,124,.22a.42.42,0,0,1,.36-.21h4.79a.42.42,0,0,1,.42.42V25.16a.42.42,0,0,1-.42.42h-4.19a.42.42,0,0,1-.42-.42V8.88l-6.25,10.81a.34.34,0,0,1-.59,0L111.49,9V25.16a.42.42,0,0,1-.42.42h-4.13a.42.42,0,0,1-.42-.42V.42A.42.42,0,0,1,106.95,0Z"/><path class="cls-2" d="M11,0H27.55A.42.42,0,0,1,28,.42V4.09a.42.42,0,0,1-.42.42H15.65v6H26.08a.42.42,0,0,1,.42.42v3.66a.42.42,0,0,1-.42.42H15.65v6.12H27.72a.42.42,0,0,1,.42.42v3.66a.42.42,0,0,1-.42.42H11a.42.42,0,0,1-.42-.42V.42A.42.42,0,0,1,11,0Z"/><path class="cls-2" d="M58.31,0H74.82a.42.42,0,0,1,.42.42V4.09a.42.42,0,0,1-.42.42H62.92v6H73.34a.42.42,0,0,1,.42.42v3.66a.42.42,0,0,1-.42.42H62.92v6.12H75a.42.42,0,0,1,.42.42v3.66a.42.42,0,0,1-.42.42H58.31a.42.42,0,0,1-.42-.42V.42A.42.42,0,0,1,58.31,0Z"/><path class="cls-2" d="M136.17,0h4.22a.42.42,0,0,1,.42.42V25.15a.42.42,0,0,1-.42.42h-4.22a.42.42,0,0,1-.42-.42V.42A.42.42,0,0,1,136.17,0Z"/><path class="cls-2" d="M54.16,0h-5a.42.42,0,0,0-.38.24L43,13.72,37.23.24A.42.42,0,0,0,36.85,0h-5a.42.42,0,0,0-.38.59L42.61,25.64a.42.42,0,0,0,.76,0L54.54.59A.42.42,0,0,0,54.16,0Z"/><path class="cls-2" d="M165.95,25.57h-5a.42.42,0,0,1-.36-.2L145.4.64a.42.42,0,0,1,.36-.64h5a.42.42,0,0,1,.36.2l15.2,24.73A.42.42,0,0,1,165.95,25.57Z"/><path class="cls-2" d="M145.76,25.57h5a.42.42,0,0,0,.36-.2L166.3.64a.42.42,0,0,0-.36-.64h-5a.42.42,0,0,0-.36.2L145.4,24.94A.42.42,0,0,0,145.76,25.57Z"/></g></g></svg>