<svg xmlns="http://www.w3.org/2000/svg" viewBox="0 0 25.72 19.53"><defs><style>.cls-1{fill:#1b1b1b;}</style></defs><title>question</title><g id="Слой_2" data-name="Слой 2"><g id="Слой_1-2" data-name="Слой 1"><path class="cls-1" d="M23.48,19.53a.5.5,0,0,1-.29-.09l-2.94-2.1h-10a.5.5,0,0,1-.5-.5V13.48h1v2.86h9.67a.5.5,0,0,1,.29.09L23,18.06V16.84a.5.5,0,0,1,.5-.5h1.24V6.23h-14V9.66h-1V5.73a.5.5,0,0,1,.5-.5h15a.5.5,0,0,1,.5.5v11.1a.5.5,0,0,1-.5.5H24V19a.5.5,0,0,1-.5.5ZM2.22,14.3a.5.5,0,0,1-.5-.5V12.1H.5a.5.5,0,0,1-.5-.5V.5A.5.5,0,0,1,.5,0h15a.5.5,0,0,1,.5.5V3.87H15V1H1V11.1H2.22a.5.5,0,0,1,.5.5v1.22L5,11.2a.5.5,0,0,1,.29-.09H15V7.91h1v3.7a.5.5,0,0,1-.5.5h-10L2.51,14.2A.5.5,0,0,1,2.22,14.3Z"/></g></g></svg>