<svg xmlns="http://www.w3.org/2000/svg" viewBox="0 0 18.07 22.87"><defs><style>.cls-1{fill:#1b1b1b;}</style></defs><title>comparison</title><g id="Слой_2" data-name="Слой 2"><g id="Слой_1-2" data-name="Слой 1"><path class="cls-1" d="M4.3,19.3H.5a.5.5,0,0,1-.5-.5V10.65a.5.5,0,0,1,.5-.5H4.3a.5.5,0,0,1,.5.5V18.8A.5.5,0,0,1,4.3,19.3ZM1,18.3H3.8V11.15H1Z"/><path class="cls-1" d="M17.57,17.67h-3.8a.5.5,0,0,1-.5-.5V9a.5.5,0,0,1,.5-.5h3.8a.5.5,0,0,1,.5.5v8.15A.5.5,0,0,1,17.57,17.67Zm-3.3-1h2.8V9.52h-2.8Z"/><path class="cls-1" d="M11,14.81H7.2a.5.5,0,0,1-.5-.5V3.82a.5.5,0,0,1,.5-.5H11a.5.5,0,0,1,.5.5V14.31A.5.5,0,0,1,11,14.81Zm-3.3-1h2.8V4.32H7.7Z"/><rect class="cls-1" x="15.17" y="4.88" width="1" height="4.14"/><rect class="cls-1" x="15.17" y="17.17" width="1" height="4.05"/><rect class="cls-1" x="8.59" y="14.31" width="1" height="4.14"/><rect class="cls-1" x="8.59" width="1" height="3.82"/><rect class="cls-1" x="1.9" y="6.67" width="1" height="3.98"/><rect class="cls-1" x="1.9" y="18.8" width="1" height="4.07"/></g></g></svg>