<svg xmlns="http://www.w3.org/2000/svg" viewBox="0 0 20.56 20.3"><defs><style>.cls-1{fill:#1b1b1b;}</style></defs><title>shop</title><g id="Слой_2" data-name="Слой 2"><g id="Слой_1-2" data-name="Слой 1"><path class="cls-1" d="M19.31,17H6.92A2,2,0,0,1,5,15.48L2.88,4.84a1.29,1.29,0,0,0-1-1L0,3.44l.2-1,1.88.39a2.29,2.29,0,0,1,1.79,1.8L6,15.27a1,1,0,0,0,.95.76H19.31Z"/><path class="cls-1" d="M18.21,14.39h-13v-1H17.81L19.42,6.7H3.77v-1H20.06a.5.5,0,0,1,.49.62L18.69,14A.5.5,0,0,1,18.21,14.39Z"/><rect class="cls-1" x="11.35" y="6.2" width="1" height="7.6"/><rect class="cls-1" x="7.69" y="6.17" width="1" height="7.67" transform="translate(-1.21 1.13) rotate(-7.34)"/><rect class="cls-1" x="11.74" y="9.5" width="7.67" height="1" transform="translate(3.66 24.17) rotate(-82.65)"/><rect class="cls-1" x="4.43" y="9.29" width="14.83" height="1"/><path class="cls-1" d="M14.46,5h-1V3.22H8V5H7V2.72a.5.5,0,0,1,.5-.5H14a.5.5,0,0,1,.5.5Z"/><path class="cls-1" d="M19,4.91H18V1H12.35V2.63h-1V.5a.5.5,0,0,1,.5-.5h6.67a.5.5,0,0,1,.5.5Z"/><path class="cls-1" d="M7.48,20.3a1.81,1.81,0,1,1,1.81-1.81A1.81,1.81,0,0,1,7.48,20.3Zm0-2.62a.81.81,0,1,0,.81.81A.81.81,0,0,0,7.48,17.67Z"/><path class="cls-1" d="M16.39,20.3a1.81,1.81,0,1,1,1.81-1.81A1.81,1.81,0,0,1,16.39,20.3Zm0-2.62a.81.81,0,1,0,.81.81A.81.81,0,0,0,16.39,17.67Z"/></g></g></svg>